<svg width="82" height="90" viewBox="0 0 82 90" fill="none" xmlns="http://www.w3.org/2000/svg">
<g filter="url(#filter0_d)">
<path fill-rule="evenodd" clip-rule="evenodd" d="M41.375 70.1409C53.5943 70.1409 63.5 60.2352 63.5 48.0159C63.5 35.7966 53.5943 25.8909 41.375 25.8909C29.1557 25.8909 19.25 35.7966 19.25 48.0159C19.25 60.2352 29.1557 70.1409 41.375 70.1409Z" fill="black" fill-opacity="0.01"/>
</g>
<g filter="url(#filter1_d)">
<path fill-rule="evenodd" clip-rule="evenodd" d="M41 70.1409C57.5685 70.1409 71 56.7094 71 40.1409C71 23.5723 57.5685 10.1409 41 10.1409C24.4315 10.1409 11 23.5723 11 40.1409C11 56.7094 24.4315 70.1409 41 70.1409Z" fill="#2196F3"/>
<path d="M69.125 40.1409C69.125 55.6739 56.533 68.2659 41 68.2659C25.467 68.2659 12.875 55.6739 12.875 40.1409C12.875 24.6079 25.467 12.0159 41 12.0159C56.533 12.0159 69.125 24.6079 69.125 40.1409Z" stroke="#42A5F5" stroke-width="3.75"/>
</g>
<mask id="mask0" mask-type="alpha" maskUnits="userSpaceOnUse" x="11" y="10" width="60" height="61">
<path d="M69.125 40.1409C69.125 55.6739 56.533 68.2659 41 68.2659C25.467 68.2659 12.875 55.6739 12.875 40.1409C12.875 24.6079 25.467 12.0159 41 12.0159C56.533 12.0159 69.125 24.6079 69.125 40.1409Z" fill="white" stroke="white" stroke-width="3.75"/>
</mask>
<g mask="url(#mask0)">
<path d="M13.714 33.0159H67.536" stroke="#42A5F5" stroke-width="3.75" stroke-linecap="square"/>
<path d="M13.714 48.7659H67.536" stroke="#42A5F5" stroke-width="3.75" stroke-linecap="square"/>
<path d="M40.25 14.6409C40.25 14.6409 30.2878 26.2184 30.5035 40.8909C30.7191 55.5633 40.25 65.6409 40.25 65.6409" stroke="#42A5F5" stroke-width="3.75" stroke-linecap="round" stroke-linejoin="round"/>
<path d="M41 14.6409C41 14.6409 50.9622 26.2184 50.7465 40.8909C50.5309 55.5633 41 65.6409 41 65.6409" stroke="#42A5F5" stroke-width="3.75" stroke-linecap="round" stroke-linejoin="round"/>
</g>
<g filter="url(#filter2_d)">
<path fill-rule="evenodd" clip-rule="evenodd" d="M30.4458 23.374C30.5621 23.3774 30.6776 23.4121 30.7791 23.4775L45.0767 32.7007L51.1946 29.1685C51.3136 29.0999 51.4397 29.0466 51.5709 29.0117C51.6604 28.9878 51.7522 28.9727 51.8456 28.9668C52.8621 28.9026 55.798 28.8186 56.4347 29.9214C57.0714 31.0244 55.5298 33.5242 54.9661 34.3721C54.8951 34.4788 54.8105 34.574 54.7152 34.6572C54.6387 34.7239 54.5552 34.783 54.4662 34.8345L48.3904 38.3423L49.2343 55.4429C49.2461 55.6821 49.125 55.9087 48.9193 56.032L47.67 56.78C47.5055 56.8787 47.3057 56.8994 47.1244 56.8367L46.1775 56.5098C46.0937 56.481 46.0176 56.4355 45.9532 56.377C45.8956 56.3247 45.8474 56.2622 45.8113 56.1917L39.3533 43.5598L32.9844 47.2368L32.2974 51.9087C32.2499 52.2319 31.9694 52.4695 31.6426 52.4634L31.1447 52.4539C30.8928 52.4492 30.6664 52.2991 30.5638 52.0691L28.774 48.0527C27.5439 48.092 26.389 47.9712 26.0792 47.4346C25.7697 46.8984 26.2429 45.8425 26.8931 44.8015L24.3295 41.2708C24.1815 41.0669 24.1647 40.7959 24.2865 40.5752L24.5273 40.1394C24.6853 39.8533 25.0314 39.7292 25.3352 39.8496L29.6974 41.5798L36.0778 37.8962L28.4191 26.0674C28.3279 25.9265 28.2948 25.7559 28.3267 25.5911L28.5168 24.6077C28.5533 24.4192 28.6711 24.2568 28.8387 24.1636L30.1115 23.4556C30.2155 23.3977 30.3311 23.3706 30.4458 23.374Z" fill="white"/>
<mask id="mask1" mask-type="alpha" maskUnits="userSpaceOnUse" x="16" y="13" width="50" height="51">
<path fill-rule="evenodd" clip-rule="evenodd" d="M30.4458 23.374C30.5621 23.3774 30.6776 23.4121 30.7791 23.4775L45.0767 32.7007L51.1946 29.1685C51.3136 29.0999 51.4397 29.0466 51.5709 29.0117C51.6604 28.9878 51.7522 28.9727 51.8456 28.9668C52.8621 28.9026 55.798 28.8186 56.4347 29.9214C57.0714 31.0244 55.5298 33.5242 54.9661 34.3721C54.8951 34.4788 54.8105 34.574 54.7152 34.6572C54.6387 34.7239 54.5552 34.783 54.4662 34.8345L48.3904 38.3423L49.2343 55.4429C49.2461 55.6821 49.125 55.9087 48.9193 56.032L47.67 56.78C47.5055 56.8787 47.3057 56.8994 47.1244 56.8367L46.1775 56.5098C46.0937 56.481 46.0176 56.4355 45.9532 56.377C45.8956 56.3247 45.8474 56.2622 45.8113 56.1917L39.3533 43.5598L32.9844 47.2368L32.2974 51.9087C32.2499 52.2319 31.9694 52.4695 31.6426 52.4634L31.1447 52.4539C30.8928 52.4492 30.6664 52.2991 30.5638 52.0691L28.774 48.0527C27.5439 48.092 26.389 47.9712 26.0792 47.4346C25.7697 46.8984 26.2429 45.8425 26.8931 44.8015L24.3295 41.2708C24.1815 41.0669 24.1647 40.7959 24.2865 40.5752L24.5273 40.1394C24.6853 39.8533 25.0314 39.7292 25.3352 39.8496L29.6974 41.5798L36.0778 37.8962L28.4191 26.0674C28.3279 25.9265 28.2948 25.7559 28.3267 25.5911L28.5168 24.6077C28.5533 24.4192 28.6711 24.2568 28.8387 24.1636L30.1115 23.4556C30.2155 23.3977 30.3311 23.3706 30.4458 23.374Z" fill="white"/>
</mask>
<g mask="url(#mask1)">
<rect x="45.536" y="30.9246" width="1.30853" height="12.4084" transform="rotate(60 45.536 30.9246)" fill="#EBECF2"/>
<path fill-rule="evenodd" clip-rule="evenodd" d="M48.9193 56.0319C49.125 55.9087 49.246 55.6822 49.2342 55.4428L48.3628 37.7833L39.1264 43.116L45.8113 56.1916C45.8877 56.341 46.0189 56.455 46.1775 56.5098L47.1244 56.8368C47.3057 56.8994 47.5054 56.8786 47.67 56.7801L48.9193 56.0319Z" fill="#DEE1E3"/>
<path opacity="0.4" fill-rule="evenodd" clip-rule="evenodd" d="M28.8362 47.9421L28.7474 47.9934L30.5637 52.0691C30.6663 52.2991 30.8927 52.4492 31.1445 52.4539L31.6425 52.4634C31.9692 52.4695 32.2498 52.2319 32.2972 51.9087L33.0228 46.9741L32.5599 47.2415C32.5044 47.2734 32.4473 47.3025 32.3885 47.3279C32.296 47.3682 32.2 47.3999 32.101 47.4221C31.5508 47.5449 30.1544 47.8359 28.8362 47.9421Z" fill="#DEE1E3"/>
<path fill-rule="evenodd" clip-rule="evenodd" d="M39.2482 43.3542L48.3776 38.0833L48.4768 40.0945L40.9559 46.6946L39.2482 43.3542Z" fill="#C5C6CC"/>
<path fill-rule="evenodd" clip-rule="evenodd" d="M57.4822 33.0932L27.6912 50.293C27.6912 50.293 26.8122 48.7043 26.0791 47.4347C26.0703 47.4193 26.0619 47.4038 26.054 47.388C27.4055 47.4858 30.1268 47.3759 32.766 45.8521L53.3905 33.9446C55.6821 32.6215 56.2434 30.9082 56.5525 30.1716C57.031 31.4567 57.4822 33.0932 57.4822 33.0932Z" fill="#DEE1E3"/>
</g>
</g>
<defs>
<filter id="filter0_d" x="8.25" y="22.8909" width="66.25" height="66.25" filterUnits="userSpaceOnUse" color-interpolation-filters="sRGB">
<feFlood flood-opacity="0" result="BackgroundImageFix"/>
<feColorMatrix in="SourceAlpha" type="matrix" values="0 0 0 0 0 0 0 0 0 0 0 0 0 0 0 0 0 0 127 0"/>
<feOffset dy="8"/>
<feGaussianBlur stdDeviation="5.5"/>
<feColorMatrix type="matrix" values="0 0 0 0 0.215686 0 0 0 0 0.407843 0 0 0 0 0.556863 0 0 0 0.25 0"/>
<feBlend mode="normal" in2="BackgroundImageFix" result="effect1_dropShadow"/>
<feBlend mode="normal" in="SourceGraphic" in2="effect1_dropShadow" result="shape"/>
</filter>
<filter id="filter1_d" x="0" y="0.140869" width="82" height="82" filterUnits="userSpaceOnUse" color-interpolation-filters="sRGB">
<feFlood flood-opacity="0" result="BackgroundImageFix"/>
<feColorMatrix in="SourceAlpha" type="matrix" values="0 0 0 0 0 0 0 0 0 0 0 0 0 0 0 0 0 0 127 0"/>
<feOffset dy="1"/>
<feGaussianBlur stdDeviation="5.5"/>
<feColorMatrix type="matrix" values="0 0 0 0 0.215686 0 0 0 0 0.407843 0 0 0 0 0.556863 0 0 0 0.3 0"/>
<feBlend mode="normal" in2="BackgroundImageFix" result="effect1_dropShadow"/>
<feBlend mode="normal" in="SourceGraphic" in2="effect1_dropShadow" result="shape"/>
</filter>
<filter id="filter2_d" x="5.69238" y="6.65356" width="71.1813" height="72.1393" filterUnits="userSpaceOnUse" color-interpolation-filters="sRGB">
<feFlood flood-opacity="0" result="BackgroundImageFix"/>
<feColorMatrix in="SourceAlpha" type="matrix" values="0 0 0 0 0 0 0 0 0 0 0 0 0 0 0 0 0 0 127 0"/>
<feOffset dy="4"/>
<feGaussianBlur stdDeviation="5.5"/>
<feColorMatrix type="matrix" values="0 0 0 0 0 0 0 0 0 0 0 0 0 0 0 0 0 0 0.35 0"/>
<feBlend mode="normal" in2="BackgroundImageFix" result="effect1_dropShadow"/>
<feBlend mode="normal" in="SourceGraphic" in2="effect1_dropShadow" result="shape"/>
</filter>
</defs>
</svg>
